<svg width="26" height="24" viewBox="0 0 24 22" fill="none" xmlns="http://www.w3.org/2000/svg">
<g clip-path="url(#clip0_97_974)">
<path d="M16.5833 18.3333H3.29167C2.0285 18.3333 1 17.3048 1 16.0417V2.29167C1 1.0285 2.0285 0 3.29167 0H10.625C10.8212 0 10.9953 0.124667 11.0586 0.309833L17.0169 17.7265C17.0646 17.8658 17.0417 18.0208 16.9564 18.1408C16.8702 18.2618 16.7318 18.3333 16.5833 18.3333ZM3.29167 0.916667C2.53358 0.916667 1.91667 1.53358 1.91667 2.29167V16.0417C1.91667 16.7998 2.53358 17.4167 3.29167 17.4167H15.9417L10.2977 0.916667H3.29167Z" fill="none" stroke="none" stroke-width="0.4"/>
<path d="M20.7082 22H13.3748C13.1842 22 13.0128 21.8818 12.9458 21.7031L11.5708 18.0364C11.4819 17.799 11.602 17.535 11.8385 17.446C12.0759 17.358 12.3399 17.4772 12.4288 17.7137L13.6929 21.0834H20.7082C21.4663 21.0834 22.0832 20.4665 22.0832 19.7084V5.95838C22.0832 5.2003 21.4663 4.58338 20.7082 4.58338H11.9998C11.7468 4.58338 11.5415 4.37805 11.5415 4.12505C11.5415 3.87205 11.7468 3.66672 11.9998 3.66672H20.7082C21.9713 3.66672 22.9998 4.69522 22.9998 5.95838V19.7084C22.9998 20.9715 21.9713 22 20.7082 22Z" fill="none" stroke="none" stroke-width="0.4"/>
<path d="M13.375 22C13.2677 22 13.1605 21.9624 13.0734 21.8863C12.8827 21.7195 12.8635 21.4298 13.0303 21.2392L16.2386 17.5725C16.4055 17.3809 16.6951 17.3626 16.8858 17.5294C17.0765 17.6962 17.0957 17.9859 16.9289 18.1766L13.7205 21.8432C13.6289 21.9468 13.5024 22 13.375 22Z" fill="none" stroke="none" stroke-width="0.4"/>
<path d="M9.70842 12.8333C9.51959 12.8333 9.34359 12.7169 9.27667 12.529L7.41675 7.32142L5.55684 12.529C5.47159 12.7673 5.2085 12.892 4.97109 12.8067C4.73275 12.7215 4.60809 12.4593 4.69334 12.221L6.985 5.80433C7.11517 5.4395 7.71834 5.4395 7.84759 5.80433L10.1393 12.221C10.2245 12.4593 10.1008 12.7215 9.8615 12.8067C9.812 12.8251 9.75975 12.8333 9.70842 12.8333Z" fill="none" stroke="none" stroke-width="0.4"/>
<path d="M8.33341 10.0833H6.50008C6.24708 10.0833 6.04175 9.878 6.04175 9.625C6.04175 9.372 6.24708 9.16667 6.50008 9.16667H8.33341C8.58641 9.16667 8.79175 9.372 8.79175 9.625C8.79175 9.878 8.58641 10.0833 8.33341 10.0833Z" fill="none" stroke="none" stroke-width="0.4"/>
<path d="M20.7083 10.0833H14.2916C14.0386 10.0833 13.8333 9.878 13.8333 9.625C13.8333 9.372 14.0386 9.16667 14.2916 9.16667H20.7083C20.9613 9.16667 21.1666 9.372 21.1666 9.625C21.1666 9.878 20.9613 10.0833 20.7083 10.0833Z" fill="none" stroke="none" stroke-width="0.4"/>
<path d="M17.0416 10.0833C16.7886 10.0833 16.5833 9.878 16.5833 9.625V8.70833C16.5833 8.45533 16.7886 8.25 17.0416 8.25C17.2946 8.25 17.4999 8.45533 17.4999 8.70833V9.625C17.4999 9.878 17.2946 10.0833 17.0416 10.0833Z" fill="none" stroke="none" stroke-width="0.4"/>
<path d="M15.6667 15.5833C15.5228 15.5833 15.3817 15.5164 15.2927 15.3908C15.1461 15.1846 15.1947 14.8986 15.4009 14.7519C17.4075 13.3265 18.8751 10.4188 18.8751 9.62592C18.8751 9.37292 19.0804 9.16758 19.3334 9.16758C19.5864 9.16758 19.7917 9.37292 19.7917 9.62592C19.7917 10.8341 18.0253 14.0122 15.9326 15.4999C15.8519 15.5558 15.7593 15.5833 15.6667 15.5833Z" fill="none" stroke="none" stroke-width="0.4"/>
<path d="M19.3333 16.5C19.2224 16.5 19.1115 16.4606 19.0244 16.3799C18.6917 16.0756 15.7629 13.3705 15.2423 12.089C15.1469 11.8543 15.2606 11.5876 15.4943 11.4922C15.7263 11.3978 15.9957 11.5097 16.0911 11.7443C16.466 12.6674 18.7824 14.9151 19.6432 15.7034C19.8302 15.8748 19.8421 16.1636 19.6716 16.3515C19.5808 16.4496 19.4571 16.5 19.3333 16.5Z" fill="none" stroke="none" stroke-width="0.4"/>
</g>
<defs>
<clipPath id="clip0_97_974">
<rect width="26" height="24" fill="none"/>
</clipPath>
</defs>
</svg>
