<svg width="22" height="22" viewBox="0 0 32 32" fill="none" xmlns="http://www.w3.org/2000/svg">
<path d="M15.9996 28.7195C15.6041 28.7204 15.2123 28.6432 14.8467 28.4922C14.4812 28.3411 14.1491 28.1193 13.8696 27.8395L3.56962 17.5395C2.75596 16.717 2.11411 15.7408 1.68147 14.6677C1.24882 13.5947 1.03404 12.4463 1.04962 11.2895C1.05746 10.2293 1.27438 9.18111 1.68795 8.20492C2.10152 7.22872 2.70363 6.34371 3.45977 5.60057C4.21591 4.85744 5.11123 4.27078 6.09446 3.8742C7.07768 3.47762 8.12948 3.27892 9.18962 3.28947C10.2687 3.2786 11.339 3.48455 12.3371 3.89509C13.3351 4.30564 14.2405 4.91243 14.9996 5.67947L15.9996 6.67947L16.8196 5.85947C18.2355 4.40604 20.1302 3.51498 22.1527 3.35135C24.1752 3.18771 26.1885 3.76257 27.8196 4.96947C28.7481 5.68452 29.5137 6.58919 30.0652 7.62323C30.6168 8.65727 30.9417 9.79696 31.0183 10.9664C31.0949 12.1358 30.9215 13.3082 30.5097 14.4053C30.0978 15.5025 29.4569 16.4994 28.6296 17.3295L18.1296 27.8395C17.8501 28.1193 17.518 28.3411 17.1525 28.4922C16.7869 28.6432 16.3951 28.7204 15.9996 28.7195ZM9.14962 5.27947C7.56014 5.27785 6.03238 5.89469 4.88962 6.99947C4.30702 7.56002 3.84371 8.23252 3.52752 8.9766C3.21132 9.72069 3.04877 10.521 3.04962 11.3295C3.04085 12.2188 3.2087 13.101 3.54344 13.925C3.87817 14.7489 4.37313 15.4982 4.99962 16.1295L15.2996 26.4295C15.3926 26.5232 15.5032 26.5976 15.625 26.6484C15.7469 26.6991 15.8776 26.7253 16.0096 26.7253C16.1416 26.7253 16.2723 26.6991 16.3942 26.6484C16.5161 26.5976 16.6267 26.5232 16.7196 26.4295L27.2296 15.9095C27.8465 15.2795 28.3232 14.5261 28.6282 13.6989C28.9333 12.8716 29.0599 11.9891 28.9996 11.1095C28.9462 10.2208 28.7014 9.35413 28.282 8.56882C27.8626 7.78351 27.2785 7.09809 26.5696 6.55947C25.3257 5.64236 23.7909 5.20873 22.251 5.33935C20.7111 5.46997 19.2712 6.15595 18.1996 7.26947L16.7096 8.79947C16.6167 8.8932 16.5061 8.96759 16.3842 9.01836C16.2623 9.06913 16.1316 9.09527 15.9996 9.09527C15.8676 9.09527 15.7369 9.06913 15.615 9.01836C15.4932 8.96759 15.3826 8.8932 15.2896 8.79947L13.5896 7.09947C12.4187 5.93875 10.8383 5.28504 9.18962 5.27947H9.14962Z" fill="none"/>
</svg>
