<svg width="28" height="28" viewBox="0 0 22 22" fill="none" xmlns="http://www.w3.org/2000/svg">
<g clip-path="url(#clip0_97_962)">
<path d="M3.982 4.23845C4.09977 4.4151 4.27642 4.47398 4.45306 4.47398C4.57083 4.47398 4.68859 4.4151 4.80636 4.35621C5.04189 4.17957 5.10077 3.76739 4.92412 3.53186L4.57083 3.0608C4.39418 2.82527 4.04089 2.76639 3.74647 2.94304C3.51095 3.11968 3.45206 3.53186 3.62871 3.76739L3.982 4.23845ZM0.979005 13.5419L0.390182 13.7185C0.0957698 13.8363 -0.0808771 14.1307 0.0368876 14.484C0.0957699 14.7195 0.331299 14.8962 0.625711 14.8962H0.802358L1.39118 14.7195C1.68559 14.6017 1.86224 14.3073 1.74448 13.954C1.62671 13.6596 1.27342 13.483 0.979005 13.5419ZM9.87024 2.76639C10.2235 2.76639 10.4591 2.53086 10.4591 2.17757V1.58874C10.4591 1.23545 10.2235 0.99992 9.87024 0.99992C9.51694 0.99992 9.28141 1.23545 9.28141 1.58874V2.17757C9.28141 2.53086 9.51694 2.76639 9.87024 2.76639ZM0.449064 8.89015C0.449064 8.89015 1.15565 9.12568 1.21453 9.12568C1.45006 9.12568 1.68559 8.94904 1.80336 8.71351C1.92112 8.4191 1.74448 8.0658 1.45006 7.94804L0.86124 7.77139C0.566829 7.65362 0.213535 7.83027 0.0957699 8.12468C-0.0808772 8.4191 0.0957698 8.77239 0.449064 8.89015ZM3.982 18.3702L3.62871 18.8413C3.45206 19.0768 3.51095 19.489 3.74647 19.6656C3.86424 19.7245 3.982 19.7834 4.09977 19.7834C4.27642 19.7834 4.45306 19.7245 4.57083 19.5479L4.92412 19.0768C5.10077 18.8413 5.04189 18.4291 4.80636 18.2524C4.57083 18.0169 4.21753 18.0758 3.982 18.3702ZM21.7645 10.2444C21.5878 10.1267 21.3523 10.0678 21.1756 10.1267C20.6457 10.3033 20.0569 10.4211 19.4681 10.3033C17.5838 10.0089 16.2295 8.24245 16.5239 6.35821C16.6417 5.65163 16.9361 5.00392 17.4661 4.47398C17.6427 4.29733 17.6427 4.0618 17.5838 3.88515C17.5249 3.64963 17.2894 3.53186 16.995 3.47298C15.5818 3.23745 14.1686 3.59074 12.991 4.29733C12.0489 3.88515 10.989 3.64963 9.92912 3.64963C5.68959 3.59074 2.21553 7.0648 2.21553 11.3043C2.21553 15.5439 5.68959 19.0179 9.92912 19.0179C12.5788 19.0179 15.0519 17.6636 16.4651 15.4261C19.0559 15.3083 21.3523 13.483 22 10.8333C22 10.5977 21.9411 10.3622 21.7645 10.2444ZM9.92912 17.8403C6.3373 17.8403 3.39318 14.8962 3.39318 11.3043C3.39318 7.71251 6.3373 4.76839 9.92912 4.76839C10.6357 4.76839 11.2834 4.88615 11.9311 5.0628C10.989 5.94604 10.4002 7.12368 10.1646 8.47798C9.69359 11.7165 11.8722 14.7195 15.0519 15.2494C13.8154 16.8982 11.9311 17.8403 9.92912 17.8403ZM15.4052 14.1896C12.7555 13.7774 10.9301 11.3632 11.2834 8.71351C11.6367 6.35821 13.5798 4.65063 15.8762 4.59174C15.5818 5.0628 15.4052 5.65162 15.3463 6.24045C14.993 8.77239 16.7595 11.1277 19.2914 11.5399C19.7036 11.5987 20.0569 11.5987 20.4691 11.5399C19.5858 13.3652 17.5249 14.484 15.4052 14.1896ZM15.6996 18.3702C15.5229 18.1347 15.1696 18.0758 14.8752 18.2524C14.6397 18.4291 14.5808 18.8413 14.7575 19.0768L15.1108 19.5479C15.2285 19.7245 15.4052 19.7834 15.5818 19.7834C15.6996 19.7834 15.8174 19.7245 15.9351 19.6656C16.1706 19.489 16.2295 19.0768 16.0529 18.8413L15.6996 18.3702ZM9.87024 19.8423C9.51694 19.8423 9.28141 20.0778 9.28141 20.4311V21.0199C9.28141 21.3732 9.51694 21.6087 9.87024 21.6087C10.2235 21.6087 10.4591 21.3732 10.4591 21.0199V20.4311C10.4591 20.0778 10.1646 19.8423 9.87024 19.8423Z" fill="none"/>
</g>
<defs>
<clipPath id="clip0_97_962">
<rect width="28" height="28" fill="none"/>
</clipPath>
</defs>
</svg>
