<svg width="24" height="24" viewBox="0 0 24 24" fill="none" xmlns="http://www.w3.org/2000/svg">
<path d="M8.4062 12.6992C5.5206 13.9992 3.4281 16.6993 3.0625 19.9993C3.0625 21.0993 3.8954 21.9993 5 21.9993H19C20.105 21.9993 20.938 21.0993 20.938 19.9993C20.572 16.6993 18.479 13.9992 15.594 12.6992C14.945 13.9992 13.583 14.9993 12 14.9993C10.417 14.9993 9.0547 13.9992 8.4062 12.6992Z" fill="none"/>
<path d="M17 7C17 8.32608 16.4732 9.59785 15.5355 10.5355C14.5979 11.4732 13.3261 12 12 12C10.6739 12 9.40215 11.4732 8.46447 10.5355C7.52678 9.59785 7 8.32608 7 7C7 5.67392 7.52678 4.40215 8.46447 3.46447C9.40215 2.52678 10.6739 2 12 2C13.3261 2 14.5979 2.52678 15.5355 3.46447C16.4732 4.40215 17 5.67392 17 7Z" fill="none"/>
<path d="M12 11C10.723 11 9.5057 11.269 8.4062 11.75C5.5206 13.012 3.4281 15.747 3.0625 19C3.0625 20.105 3.8954 21 5 21H19C20.105 21 20.938 20.105 20.938 19C20.572 15.747 18.479 13.012 15.594 11.75C14.494 11.269 13.277 11 12 11Z" fill="none"/>
</svg>
